# xmcd
#
# Track frame offsets: 
#        182
#        16062
#        34862
#        54300
#        74760
#        93020
#        111350
#        126382
#        145425
#        163605
#
# Disc length: 2443 seconds
#
# Revision: 4
# Processed by: cddbd v1.5.2PL0 Copyright (c) Steve Scherf et al.
# Submitted via: ExactAudioCopy v1.0b3
#
DISCID=8a09890a
DTITLE=Peabo Bryson - The Best Of Peabo Bryson
DYEAR=2004
DGENRE=R&B/Soul
TTITLE0=Tonight I Celebrate My Love
TTITLE1=I'm So Into You
TTITLE2=What You Won't Do For Love
TTITLE3=Feel The Fire
TTITLE4=You're Lookin' Like Love To Me
TTITLE5=Reaching For The Sky
TTITLE6=Gimme Some Time
TTITLE7=Let The Feeling Flow
TTITLE8=I Just Came Here To Dance
TTITLE9=Crosswinds
EXTD=
EXTT0=
EXTT1=
EXTT2=
EXTT3=
EXTT4=
EXTT5=
EXTT6=
EXTT7=
EXTT8=
EXTT9=
PLAYORDER=
